<svg xmlns="http://www.w3.org/2000/svg" width="44" height="50" viewBox="0 0 44 50">
  <path d="M28.5735573,-0.000333333333 L1.44747938,-0.000333333333 C0.647900451,-0.000333333333 -0.000332075472,0.651055556 -0.000332075472,1.45452778 L-0.000332075472,48.5422593 C-0.000332075472,49.4435324 0.72564689,49.9996667 1.46331662,49.9996667 C1.91326693,49.9996667 2.36765167,49.7926644 2.66412475,49.3306852 L29.7902603,2.24301157 C30.4115407,1.27489815 29.7199429,-0.000333333333 28.5735573,-0.000333333333 M23.848935,4.1908125 L4.17050519,38.3501875 L4.17050519,4.1908125 L23.848935,4.1908125 M34.5653313,3.40203935 C34.0319908,3.40203935 33.5072887,3.67541898 33.21525,4.1839838 L13.0230602,39.3452106 C12.5352733,40.1944583 12.9400155,41.2713102 13.8581146,41.6036019 C16.1935024,42.4489144 18.7113928,42.9101991 21.3366884,42.9101991 C21.3986552,42.9101991 21.460622,42.9099097 21.5227616,42.9093889 C33.7442138,42.8081157 43.6324665,32.5915648 43.4078657,20.3122245 C43.2865237,13.6797014 40.2681766,7.75852083 35.5709095,3.7726412 C35.2753579,3.52183102 34.9184153,3.40203935 34.5653313,3.40203935 M35.1220534,9.24874074 C37.6924083,12.3659861 39.1627374,16.2872824 39.2377771,20.38925 C39.3258321,25.2045856 37.5149736,29.7753611 34.1385898,33.2596782 C30.7660069,36.7401759 26.2734721,38.6787755 21.4885531,38.7184167 C21.437874,38.7188218 21.3872524,38.7190532 21.3366884,38.7190532 C20.3259272,38.7190532 19.3255321,38.6353148 18.3417229,38.4688796 L35.1220534,9.24874074"/>
</svg>
